
  <svg width="329.25" height="48" viewBox="0 0 1756 256" fill="none" xmlns="http://www.w3.org/2000/svg" xmlns:xlink="http://www.w3.org/1999/xlink" version="1.1">
    
        <g transform="translate(0, 0)">
          <svg xmlns="http://www.w3.org/2000/svg" width="256" height="256" fill="none" viewBox="0 0 256 256"><rect width="256" height="256" fill="#242938" rx="60"/><path fill="url(#paint0_linear_2_47)" d="M127.279 29C76.5066 29 79.6772 51.018 79.6772 51.018L79.7338 73.8284H128.185V80.6772H60.4893C60.4893 80.6772 28 76.9926 28 128.222C28 179.452 56.3573 177.636 56.3573 177.636H73.2812V153.863C73.2812 153.863 72.369 125.506 101.186 125.506H149.24C149.24 125.506 176.239 125.942 176.239 99.4123V55.5461C176.239 55.5461 180.338 29 127.279 29ZM100.563 44.339C105.384 44.339 109.28 48.2351 109.28 53.0556C109.28 57.8761 105.384 61.7723 100.563 61.7723C95.7426 61.7723 91.8465 57.8761 91.8465 53.0556C91.8465 48.2351 95.7426 44.339 100.563 44.339Z"/><path fill="url(#paint1_linear_2_47)" d="M128.721 227.958C179.493 227.958 176.323 205.941 176.323 205.941L176.266 183.13H127.815V176.281H195.511C195.511 176.281 228 179.966 228 128.736C228 77.5062 199.643 79.323 199.643 79.323H182.719V103.096C182.719 103.096 183.631 131.453 154.814 131.453H106.76C106.76 131.453 79.7607 131.016 79.7607 157.546V201.412C79.7607 201.412 75.6615 227.958 128.721 227.958ZM155.437 212.619C150.616 212.619 146.72 208.723 146.72 203.903C146.72 199.082 150.616 195.186 155.437 195.186C160.257 195.186 164.154 199.082 164.154 203.903C164.154 208.723 160.257 212.619 155.437 212.619Z"/><defs><linearGradient id="paint0_linear_2_47" x1="47.22" x2="146.333" y1="46.896" y2="145.02" gradientUnits="userSpaceOnUse"><stop stop-color="#387EB8"/><stop offset="1" stop-color="#366994"/></linearGradient><linearGradient id="paint1_linear_2_47" x1="108.056" x2="214.492" y1="109.905" y2="210.522" gradientUnits="userSpaceOnUse"><stop stop-color="#FFE052"/><stop offset="1" stop-color="#FFC331"/></linearGradient></defs></svg>
        </g>
         
        <g transform="translate(300, 0)">
          <svg width="256" height="256" viewBox="0 0 256 256" fill="none" xmlns="http://www.w3.org/2000/svg">
<rect width="256" height="256" rx="60" fill="#242938"/>
<path d="M180.975 90.4153L167.567 103.824C189.508 125.765 189.508 161.115 167.567 182.65C145.625 204.591 110.275 204.591 88.7404 182.65C66.7991 160.709 66.7991 125.359 88.7404 103.824L123.481 69.0835L128.357 64.2077V38L75.9413 90.4153C46.6862 119.67 46.6862 166.804 75.9413 196.059C105.196 225.314 152.33 225.314 180.975 196.059C210.23 166.6 210.23 119.67 180.975 90.4153Z" fill="#EE4C2C"/>
<path d="M154.77 87.1705C160.156 87.1705 164.522 82.8045 164.522 77.4188C164.522 72.0331 160.156 67.667 154.77 67.667C149.385 67.667 145.019 72.0331 145.019 77.4188C145.019 82.8045 149.385 87.1705 154.77 87.1705Z" fill="#EE4C2C"/>
</svg>

        </g>
         
        <g transform="translate(600, 0)">
          <svg width="256" height="256" viewBox="0 0 256 256" fill="none" xmlns="http://www.w3.org/2000/svg">
<rect width="256" height="256" rx="60" fill="#242938"/>
<g clip-path="url(#clip0_983_172)">
<path d="M181.405 160.654C205.831 136.23 209.891 100.69 190.472 81.2731C171.056 61.8579 135.518 65.9168 111.094 90.3399C86.6691 114.764 93.7346 161.426 102.028 169.721C108.73 176.423 156.982 185.078 181.405 160.654Z" fill="#F89939"/>
<path d="M81.1816 125.361C67.0116 111.192 46.3899 108.833 35.1213 120.1C23.8556 131.367 26.211 151.991 40.3838 166.159C54.5567 180.333 81.6323 176.234 86.4412 171.42C90.3327 167.535 95.3558 139.533 81.1816 125.361Z" fill="#3499CD"/>
<path d="M130.073 154.668C127.57 156.972 125.374 158.672 123.487 159.765C121.599 160.861 119.799 161.409 118.086 161.409C116.116 161.409 114.527 160.645 113.321 159.117C112.114 157.587 111.513 155.536 111.513 152.956C111.513 149.089 112.351 144.448 114.027 139.036C115.7 133.62 117.737 128.629 120.13 124.063L127.147 121.466C127.367 121.392 127.534 121.354 127.645 121.354C128.177 121.354 128.617 121.747 128.955 122.528C129.296 123.313 129.467 124.367 129.467 125.692C129.467 129.449 128.603 133.086 126.87 136.603C125.137 140.122 122.432 143.877 118.749 147.873C118.601 149.789 118.528 151.104 118.528 151.823C118.528 153.427 118.822 154.695 119.411 155.635C120.001 156.576 120.783 157.043 121.759 157.043C122.755 157.043 123.813 156.687 124.937 155.969C126.058 155.249 127.771 153.759 130.073 151.492V154.668H130.073ZM119.495 143.869C121.833 141.269 123.732 138.354 125.186 135.128C126.64 131.9 127.366 129.125 127.366 126.799C127.366 126.121 127.266 125.57 127.064 125.156C126.862 124.741 126.602 124.533 126.29 124.533C125.611 124.533 124.62 126.229 123.321 129.622C122.022 133.015 120.747 137.764 119.495 143.869Z" fill="#010101"/>
<path d="M150.737 154.667C148.399 156.972 146.3 158.672 144.439 159.765C142.579 160.861 140.528 161.408 138.28 161.408C135.775 161.408 133.754 160.607 132.214 159.007C130.678 157.402 129.91 155.295 129.91 152.68C129.91 148.777 131.263 145.245 133.973 142.087C136.677 138.927 139.68 137.349 142.976 137.349C144.689 137.349 146.059 137.792 147.092 138.676C148.123 139.561 148.639 140.719 148.639 142.156C148.639 145.969 144.588 149.061 136.485 151.437C137.221 155.026 139.145 156.824 142.258 156.824C143.474 156.824 144.633 156.497 145.737 155.845C146.844 155.19 148.509 153.738 150.738 151.493L150.737 154.667ZM136.263 149.558C140.976 148.231 143.334 145.784 143.334 142.211C143.334 140.443 142.688 139.56 141.401 139.56C140.185 139.56 139.026 140.484 137.922 142.336C136.814 144.186 136.263 146.592 136.263 149.558Z" fill="#010101"/>
<path d="M180.238 154.668C177.291 157.466 175.182 159.292 173.913 160.14C172.642 160.987 171.427 161.409 170.266 161.409C167.356 161.409 165.985 158.841 166.15 153.703C164.309 156.335 162.609 158.278 161.053 159.533C159.498 160.785 157.892 161.409 156.232 161.409C154.614 161.409 153.238 160.651 152.103 159.132C150.969 157.612 150.406 155.749 150.406 153.537C150.406 150.776 151.164 148.142 152.682 145.636C154.203 143.131 156.15 141.108 158.525 139.561C160.9 138.014 163.001 137.239 164.822 137.239C167.125 137.239 168.737 138.299 169.658 140.415L175.303 137.296H176.853L174.414 145.388C173.162 149.459 172.534 152.249 172.534 153.759C172.534 155.342 173.094 156.134 174.219 156.134C174.934 156.134 175.726 155.752 176.592 154.987C177.458 154.222 178.671 153.057 180.236 151.492V154.668H180.238ZM160.018 156.189C161.859 156.189 163.594 154.619 165.227 151.48C166.857 148.339 167.671 145.441 167.671 142.79C167.671 141.76 167.439 140.953 166.981 140.374C166.519 139.792 165.902 139.504 165.13 139.504C163.288 139.504 161.541 141.069 159.896 144.2C158.248 147.332 157.422 150.213 157.422 152.844C157.422 153.84 157.667 154.646 158.155 155.263C158.642 155.881 159.261 156.189 160.018 156.189Z" fill="#010101"/>
<path d="M200.873 154.668C196.25 159.197 192.686 161.464 190.182 161.464C189.058 161.464 188.109 160.99 187.337 160.044C186.566 159.095 186.177 157.92 186.177 156.52C186.177 153.923 187.569 150.444 190.349 146.079C188.985 146.779 187.495 147.265 185.874 147.542C184.677 149.752 182.797 152.128 180.239 154.667H179.605V152.184C181.04 150.692 182.339 149.089 183.499 147.376C181.913 146.676 181.123 145.635 181.123 144.257C181.123 142.837 181.604 141.323 182.574 139.709C183.54 138.1 184.87 137.295 186.566 137.295C188.002 137.295 188.719 138.029 188.719 139.503C188.719 140.664 188.305 142.32 187.475 144.476C190.531 144.143 193.202 141.807 195.487 137.459L197.999 137.348L195.43 144.42C194.363 147.403 193.672 149.435 193.36 150.511C193.048 151.587 192.89 152.542 192.89 153.37C192.89 154.144 193.07 154.763 193.428 155.22C193.787 155.684 194.271 155.912 194.879 155.912C195.541 155.912 196.178 155.685 196.785 155.237C197.392 154.782 198.755 153.535 200.874 151.492V154.668H200.873Z" fill="#010101"/>
<path d="M228 154.668C223.747 159.164 220.098 161.409 217.061 161.409C215.827 161.409 214.833 160.977 214.078 160.111C213.321 159.246 212.944 158.086 212.944 156.632C212.944 154.661 213.755 151.65 215.376 147.6C216.241 145.426 216.675 144.043 216.675 143.456C216.675 142.866 216.443 142.571 215.985 142.571C215.728 142.571 215.385 142.701 214.962 142.957C214.574 143.215 214.123 143.577 213.607 144.036C213.148 144.459 212.631 144.974 212.06 145.58C211.562 146.1 211.028 146.689 210.46 147.349L208.911 149.146C208.231 149.974 207.807 150.848 207.642 151.769C207.364 153.334 207.181 154.772 207.088 156.081C207.031 157.055 207.005 158.37 207.005 160.031L200.9 161.465C200.699 158.979 200.596 157.128 200.596 155.914C200.596 152.949 200.941 150.14 201.633 147.489C202.323 144.835 203.431 141.854 204.961 138.538L211.7 137.24C210.283 141.053 209.353 144.053 208.911 146.244C211.931 142.874 214.326 140.542 216.1 139.242C217.872 137.943 219.45 137.296 220.829 137.296C221.766 137.296 222.549 137.65 223.173 138.357C223.8 139.066 224.111 139.955 224.111 141.018C224.111 142.784 223.32 145.694 221.738 149.747C220.65 152.527 220.107 154.33 220.107 155.163C220.107 156.272 220.559 156.826 221.463 156.826C222.81 156.826 224.991 155.048 228 151.494V154.668Z" fill="#010101"/>
<path d="M140.525 123.723C140.568 124.211 140.69 124.585 140.89 124.845C141.259 125.316 141.898 125.552 142.808 125.552C143.35 125.552 143.827 125.435 144.239 125.202C144.651 124.964 144.856 124.598 144.856 124.105C144.856 123.731 144.691 123.447 144.361 123.252C144.149 123.133 143.732 122.995 143.109 122.837L141.947 122.545C141.205 122.361 140.657 122.155 140.305 121.927C139.677 121.532 139.362 120.984 139.362 120.285C139.362 119.462 139.658 118.795 140.248 118.286C140.844 117.777 141.643 117.522 142.646 117.522C143.957 117.522 144.902 117.907 145.482 118.676C145.845 119.164 146.021 119.689 146.011 120.253H144.629C144.602 119.922 144.485 119.622 144.279 119.351C143.943 118.966 143.361 118.774 142.532 118.774C141.979 118.774 141.559 118.879 141.272 119.091C140.991 119.302 140.85 119.581 140.85 119.928C140.85 120.307 141.037 120.611 141.41 120.838C141.627 120.974 141.947 121.093 142.369 121.196L143.337 121.431C144.388 121.686 145.092 121.933 145.45 122.171C146.019 122.545 146.303 123.133 146.303 123.935C146.303 124.709 146.008 125.379 145.417 125.942C144.832 126.506 143.938 126.787 142.735 126.787C141.44 126.787 140.522 126.495 139.98 125.91C139.444 125.319 139.156 124.59 139.119 123.723H140.525ZM151.334 117.498C152.315 117.498 153.111 117.736 153.723 118.213C154.341 118.69 154.712 119.511 154.837 120.676H153.414C153.328 120.139 153.13 119.695 152.821 119.343C152.512 118.985 152.017 118.806 151.334 118.806C150.402 118.806 149.736 119.261 149.335 120.172C149.074 120.762 148.944 121.491 148.944 122.358C148.944 123.23 149.129 123.964 149.497 124.56C149.866 125.156 150.445 125.454 151.236 125.454C151.843 125.454 152.323 125.27 152.675 124.902C153.032 124.528 153.279 124.019 153.414 123.374H154.837C154.674 124.528 154.268 125.373 153.618 125.91C152.967 126.441 152.136 126.706 151.123 126.706C149.985 126.706 149.077 126.292 148.4 125.463C147.723 124.628 147.384 123.588 147.384 122.342C147.384 120.814 147.755 119.624 148.497 118.774C149.24 117.923 150.185 117.498 151.334 117.498ZM156.3 117.79H157.787V126.454H156.3V117.79ZM156.3 114.515H157.787V116.173H156.3V114.515ZM159.973 114.515H161.379V121.448L165.134 117.75H167.003L163.671 121.009L167.19 126.454H165.321L162.606 122.065L161.379 123.187V126.454H159.973V114.515ZM168.328 117.79H169.815V126.454H168.328V117.79ZM168.328 114.515H169.815V116.173H168.328V114.515ZM172.327 115.32H173.806V117.75H175.196V118.944H173.806V124.625C173.806 124.929 173.909 125.132 174.115 125.235C174.228 125.295 174.418 125.324 174.684 125.324C174.754 125.324 174.83 125.324 174.911 125.324C174.992 125.319 175.087 125.311 175.196 125.3V126.454C175.028 126.503 174.852 126.538 174.667 126.56C174.489 126.581 174.294 126.592 174.082 126.592C173.4 126.592 172.936 126.419 172.692 126.072C172.449 125.72 172.327 125.265 172.327 124.707V118.944H171.148V117.75H172.327V115.32Z" fill="white"/>
</g>
<defs>
<clipPath id="clip0_983_172">
<rect width="200" height="107.86" fill="white" transform="translate(28 69)"/>
</clipPath>
</defs>
</svg>

        </g>
         
        <g transform="translate(900, 0)">
          <svg width="256" height="256" viewBox="0 0 256 256" fill="none" xmlns="http://www.w3.org/2000/svg">
<g clip-path="url(#clip0_404_220)">
<rect width="256" height="256" rx="60" fill="#59B943"/>
<path fill-rule="evenodd" clip-rule="evenodd" d="M233.776 -6H256V261H253.934C254.456 261 254.956 260.793 255.326 260.425C255.695 260.057 255.902 259.557 255.902 259.037V33.7359C256.059 33.2777 256.026 32.7762 255.812 32.3417C255.598 31.9073 255.22 31.5755 254.76 31.4193C254.301 31.2631 253.798 31.2953 253.363 31.5088C252.927 31.7224 252.594 32.0997 252.438 32.5579L169.762 125.144C169.526 125.399 169.239 125.602 168.921 125.741C168.603 125.88 168.259 125.951 167.911 125.951C167.564 125.951 167.22 125.88 166.901 125.741C166.583 125.602 166.297 125.399 166.061 125.144L123.857 81.7174C123.499 81.2717 123.304 80.7177 123.304 80.1468C123.304 79.5758 123.499 79.0219 123.857 78.5762L137.793 60.75C138.027 60.4257 138.334 60.1615 138.69 59.9793C139.046 59.7971 139.441 59.702 139.841 59.702C140.241 59.702 140.635 59.7971 140.991 59.9793C141.347 60.1615 141.655 60.4257 141.888 60.75L165.51 86.8218C165.746 87.1025 166.041 87.3282 166.375 87.4831C166.708 87.6379 167.071 87.7182 167.439 87.7182C167.806 87.7182 168.17 87.6379 168.503 87.4831C168.836 87.3282 169.131 87.1025 169.368 86.8218L235.194 -3.17294C235.377 -3.4389 235.485 -3.74892 235.508 -4.07077C235.53 -4.39263 235.465 -4.71458 235.321 -5.00314C235.176 -5.29171 234.956 -5.53636 234.685 -5.71167C234.413 -5.88697 234.1 -5.98653 233.776 -6ZM1.96848 -6H0V-4.03676C0 -4.55745 0.207393 -5.0568 0.576554 -5.42498C0.945715 -5.79316 1.4464 -6 1.96848 -6ZM0 259.037V261H1.96848C1.4464 261 0.945715 260.793 0.576554 260.425C0.207393 260.057 0 259.557 0 259.037ZM168.968 163.04C164.08 162.892 159.315 164.577 155.619 167.761C151.923 170.944 149.568 175.392 149.02 180.222C148.996 180.316 148.994 180.414 149.014 180.508C149.034 180.603 149.076 180.691 149.137 180.767C149.198 180.842 149.275 180.902 149.364 180.943C149.452 180.983 149.549 181.003 149.646 181H188.369C188.458 181 188.547 180.982 188.628 180.946C188.71 180.91 188.783 180.857 188.842 180.791C188.901 180.725 188.946 180.647 188.972 180.562C188.998 180.477 189.006 180.388 188.995 180.3C188.614 175.383 186.298 170.813 182.549 167.581C178.8 164.35 173.92 162.718 168.968 163.04ZM26.1414 216.003C38.5828 226.905 54.7968 232.54 71.3376 231.709H71.2589C101.101 231.709 115.51 216.474 115.51 196.527C115.51 171.51 92.231 165.937 73.8707 161.541C61.9159 158.678 52.0466 156.316 52.0466 149.41C52.0466 142.813 57.7158 138.337 67.7944 138.337C78.7663 138.235 89.4405 141.894 98.0302 148.703C98.2841 148.92 98.5799 149.082 98.8994 149.18C99.2188 149.278 99.555 149.31 99.8872 149.273C100.219 149.236 100.54 149.132 100.831 148.966C101.121 148.801 101.373 148.577 101.573 148.31L111.258 134.882C111.696 134.428 111.941 133.823 111.941 133.193C111.941 132.564 111.696 131.959 111.258 131.505C99.6091 122.062 84.9224 117.152 69.9203 117.684C43.7789 117.684 28.0311 132.919 28.0311 151.216C28.0311 175.818 50.4299 181.123 68.6468 185.437C81.1317 188.394 91.6523 190.885 91.6523 198.805C91.6523 205.087 85.3532 211.055 72.44 211.055C60.1792 211.093 48.3607 206.49 39.3696 198.176C39.0915 198.007 38.7823 197.896 38.4602 197.847C38.1381 197.799 37.8096 197.816 37.4941 197.897C37.1786 197.977 36.8824 198.12 36.623 198.316C36.3636 198.513 36.1463 198.759 35.9838 199.04L26.1414 212.783C25.7483 213.228 25.5315 213.8 25.5315 214.393C25.5315 214.986 25.7483 215.558 26.1414 216.003ZM209.931 194.319C210.038 194.047 210.087 193.756 210.076 193.465L209.997 190.952C209.997 164.173 193.383 145.876 168.895 145.876C163.245 145.778 157.633 146.824 152.398 148.95C147.164 151.076 142.417 154.239 138.443 158.246C134.468 162.254 131.35 167.024 129.276 172.267C127.202 177.51 126.216 183.119 126.376 188.753C126.148 194.526 127.132 200.282 129.264 205.654C131.397 211.025 134.632 215.893 138.761 219.945C142.89 223.997 147.823 227.143 153.243 229.182C158.663 231.222 164.45 232.109 170.234 231.787C181.812 232.078 193.162 228.544 202.517 221.735C202.942 221.395 203.225 220.91 203.313 220.373C203.4 219.836 203.285 219.287 202.989 218.83L195.903 208.542C195.739 208.29 195.523 208.076 195.27 207.913C195.017 207.751 194.732 207.644 194.435 207.599C194.137 207.555 193.833 207.574 193.543 207.655C193.253 207.736 192.984 207.878 192.753 208.071C186.841 212.219 179.823 214.515 172.596 214.668C167.089 215.121 161.61 213.503 157.239 210.132C152.867 206.76 149.919 201.879 148.974 196.449C148.963 196.356 148.971 196.262 148.997 196.172C149.023 196.082 149.066 195.998 149.125 195.925C149.183 195.852 149.256 195.791 149.338 195.746C149.421 195.701 149.511 195.673 149.604 195.664H207.871C208.164 195.675 208.455 195.625 208.728 195.519C209 195.412 209.248 195.25 209.455 195.044C209.662 194.838 209.824 194.591 209.931 194.319Z" fill="white"/>
</g>
<defs>
<clipPath id="clip0_404_220">
<rect width="256" height="256" rx="60" fill="white"/>
</clipPath>
</defs>
</svg>

        </g>
         
        <g transform="translate(1200, 0)">
          <svg width="256" height="256" viewBox="0 0 256 256" fill="none" xmlns="http://www.w3.org/2000/svg">
<rect width="256" height="256" rx="60" fill="#242938"/>
<path fill-rule="evenodd" clip-rule="evenodd" d="M128.217 28C124.394 28 120.571 28.2931 116.977 28.5862C122.325 32.222 127.366 36.2879 132.053 40.7437L135.876 44.2992L132.053 48.1223C128.68 51.2594 125.522 54.6184 122.597 58.177V58.4701C122.072 59.0326 121.578 59.624 121.119 60.2415C123.477 59.9976 125.847 59.8997 128.217 59.9484C146.089 60.1931 163.146 67.4644 175.697 80.1891C188.25 92.9138 195.286 110.069 195.286 127.942C195.286 145.816 188.25 162.97 175.697 175.696C163.146 188.42 146.089 195.691 128.217 195.936C115.678 196.009 103.375 192.522 92.7386 185.881C87.6368 186.471 82.5055 186.769 77.3698 186.773C74.9996 186.824 72.6286 186.722 70.2715 186.467C70.5453 194.48 71.2386 202.473 72.3488 210.413C88.7999 221.666 108.285 227.649 128.217 227.566C141.321 227.566 154.296 224.985 166.402 219.97C178.509 214.956 189.509 207.606 198.774 198.34C208.04 189.074 215.39 178.074 220.404 165.968C225.419 153.862 228 140.886 228 127.783C228 114.679 225.419 101.704 220.404 89.5977C215.39 77.4915 208.04 66.4915 198.774 57.2258C189.509 47.96 178.509 40.6101 166.402 35.5955C154.296 30.581 141.321 28 128.217 28ZM74.1191 43.9627C80.9446 39.5324 88.2891 35.9586 95.9871 33.3217C93.4723 37.9293 91.1967 42.6635 89.1694 47.5055C84.2228 46.044 79.1982 44.8612 74.1191 43.9627ZM68.5092 80.2438C72.4996 79.9774 76.2913 79.7244 80.3256 79.7244C76.1448 83.7231 72.5611 88.3025 69.6846 93.3219C68.6107 89.0455 67.8189 84.7034 67.3143 80.3233L68.5092 80.2438ZM64.9568 180.54V181.126L64.0647 180.858C56.4582 180.216 48.9332 178.829 41.5976 176.717L41.0114 176.424L41.3045 175.825C43.5735 168.753 46.3372 161.85 49.5752 155.167L49.8811 154.568L50.4672 154.861C55.4405 157.701 60.5717 160.254 65.8361 162.507L66.4351 162.801V163.387C65.488 169.056 64.9937 174.792 64.9568 180.54ZM64.9565 186.438V185.851H64.3576C57.8892 185.178 51.4703 184.093 45.1401 182.602L43.3688 182.308L44.2608 183.787C50.0508 192.488 57.1277 200.262 65.2496 206.84L66.4348 208.025V205.948C65.5317 199.482 65.038 192.965 64.9565 186.438ZM121.118 44.8437C119.054 46.9209 116.976 49.2784 114.912 51.6488C114.657 51.9418 113.141 53.7132 111.356 56.0963C107.225 54.1327 102.99 52.4424 98.793 50.7671L98.0646 50.4764C100.399 44.753 103.164 39.2149 106.335 33.9096C111.452 37.2922 116.386 40.9419 121.118 44.8437ZM47.2177 108.706L47.5108 109.292L48.0971 109C52.7506 105.675 57.5881 102.616 62.5866 99.8368L63.1728 99.5434V98.9447C61.6406 93.2306 60.5541 87.4062 59.9231 81.5241V80.9251H59.3369C51.9832 82.2664 44.76 84.245 37.7492 86.8382L37.163 87.1313L37.4561 87.7303C39.7948 95.113 43.0758 102.163 47.2177 108.706ZM45.4458 118.751L46.032 118.165L46.3888 119.006C49.6031 123.521 53.0574 127.86 56.7367 132.004L57.0298 132.298L56.7367 132.896C53.4928 137.246 50.5139 141.786 47.8161 146.494L47.523 147.08L46.9368 146.787C41.168 142.989 35.6356 138.844 30.3701 134.375L29.7711 133.776L30.3701 133.24C35.0214 128.036 40.0612 123.192 45.4458 118.751ZM85.347 181.426H87.1183L85.6401 180.24C80.2795 175.914 75.6831 170.719 72.0426 164.872V164.578L70.8701 163.98V164.872C70.1661 170.068 69.7704 175.302 69.6849 180.546V181.132H70.2711C71.4563 181.132 72.6383 181.206 73.8203 181.279C75.0023 181.353 76.1842 181.426 77.3694 181.426H85.347ZM86.2388 56.3838C84.5482 61.1196 83.1648 65.9595 82.097 70.8734C76.9618 70.8568 71.83 71.1419 66.7282 71.7272C66.3885 65.2244 66.4864 58.7062 67.0213 52.2166C73.5168 53.1535 79.9385 54.546 86.2388 56.3838ZM91.5527 70.5573C95.9752 67.8824 100.628 65.6092 105.456 63.7649C102.013 62.0385 98.4531 60.5566 94.8024 59.3301C93.6299 62.8728 92.4448 66.7214 91.5527 70.5573ZM44.5669 151.617H45.1403L44.8599 152.79C42.1945 158.179 39.8249 163.71 37.7617 169.357L37.1755 170.835L36.5893 169.357C32.4989 160.568 29.8031 151.195 28.599 141.576L28.3059 139.791L29.7842 140.976C34.5161 144.787 39.4509 148.34 44.5669 151.617ZM57.8585 56.9694C51.9156 62.8914 46.7511 69.5462 42.4896 76.7731C47.4731 75.3059 52.7578 74.1399 58.0324 72.9763L58.1516 72.95C57.8585 67.6104 57.8585 62.2962 57.8585 56.9694ZM60.8149 125.256V127.027L59.9738 125.536C57.7314 123.072 55.665 120.262 53.6354 117.503C52.9893 116.625 52.3463 115.751 51.7032 114.895L50.8111 114.297L51.4101 114.003C55.0802 111.446 58.7502 109.172 62.4203 106.897L62.8794 106.612L64.3576 105.733L63.7714 107.517C62.0232 113.277 61.0295 119.24 60.8149 125.256ZM61.6945 137.382L61.4014 135.61L60.5221 137.089C57.8587 140.912 55.1953 145.066 52.8759 149.208L52.57 149.794L53.169 150.087C57.1838 152.392 61.4878 154.408 65.7998 156.427L66.1675 156.6L67.6458 157.186L67.0596 155.708C64.385 149.894 62.5774 143.72 61.6945 137.382ZM42.7827 113.085L42.1837 113.379C37.3555 116.984 32.9898 121.169 29.1852 125.842L28 127.027V125.256C28.2237 115.715 29.8159 106.256 32.7279 97.1686L33.3269 95.3971L33.9131 96.8752C36.4792 102.235 39.3425 107.446 42.4896 112.487L42.7827 113.085Z" fill="#43B049"/>
</svg>

        </g>
         
        <g transform="translate(1500, 0)">
          <svg xmlns="http://www.w3.org/2000/svg" width="256" height="256" fill="none" viewBox="0 0 256 256"><rect width="256" height="256" fill="#242938" rx="60"/><path fill="#CCC" d="M216.042 167.814V74.7425L135.38 28.2068V63.9876L167.025 82.1882C168.266 82.8086 168.266 84.6701 167.025 85.2905L129.382 107.007C128.348 107.628 126.901 107.628 125.866 107.007L88.2243 85.0837C86.9834 84.4632 86.9834 82.6018 88.2243 81.9813L119.869 63.7807V28L39.2068 74.5356V167.814V167.4V167.814L70.2305 150.027V113.419C70.2305 112.178 71.6783 111.144 72.9193 111.971L110.561 133.688C111.596 134.308 112.423 135.549 112.423 136.79V180.223C112.423 181.464 110.975 182.498 109.734 181.671L78.0899 163.47L47.0661 181.257L127.728 227.793L208.39 181.257L177.366 163.47L145.722 181.671C144.688 182.291 143.033 181.464 143.033 180.223V136.79C143.033 135.549 143.653 134.308 144.894 133.688L182.537 111.971C183.571 111.35 185.225 112.178 185.225 113.419V150.027L216.042 167.814Z"/><path fill="#A6A6A6" d="M127.521 228L208.183 181.464L177.159 163.677L145.515 181.878C144.481 182.499 142.826 181.671 142.826 180.43V136.997C142.826 135.756 143.447 134.515 144.688 133.895L182.33 112.178C183.364 111.558 185.019 112.385 185.019 113.626V150.234L216.042 168.021V74.7427L127.521 125.828V228Z"/><path fill="#fff" d="M135.174 28V63.7807L166.818 81.9813C168.059 82.6018 168.059 84.4632 166.818 85.0837L129.176 106.8C128.142 107.421 126.694 107.421 125.66 106.8L88.2243 85.0837C86.9834 84.4632 86.9834 82.6018 88.2243 81.9813L119.869 63.7807V28L39.2068 74.5356L127.728 125.621L216.249 74.5356L135.174 28Z"/><path fill="#CCC" d="M109.32 181.671L77.6763 163.471L46.6525 181.258L127.314 227.793V125.622L39 74.7427V168.021V167.607V168.021L70.0237 150.234V113.626C70.0237 112.385 71.4715 111.351 72.7125 112.178L110.355 133.895C111.389 134.515 112.216 135.756 112.216 136.997V180.43C112.009 181.464 110.561 182.292 109.32 181.671Z"/></svg>
        </g>
        
  </svg>
  